<mxfile host="app.diagrams.net" modified="2023-08-29T02:34:48.689Z" agent="Mozilla/5.0 (Windows NT 10.0; Win64; x64) AppleWebKit/537.36 (KHTML, like Gecko) Chrome/116.0.0.0 Safari/537.36" etag="752_1mG7TTaWh8_iD4vV" version="21.6.9" type="github">
  <diagram name="Page-1" id="X6gdyHx88SZALmUea0a6">
    <mxGraphModel dx="954" dy="1747" grid="1" gridSize="10" guides="1" tooltips="1" connect="1" arrows="1" fold="1" page="1" pageScale="1" pageWidth="827" pageHeight="1169" math="0" shadow="0">
      <root>
        <mxCell id="0" />
        <mxCell id="1" parent="0" />
        <mxCell id="IWvoaicDPqGYQ-sWeMdb-1" value="" style="whiteSpace=wrap;html=1;aspect=fixed;strokeColor=#000000;fillColor=#FFFFFF;" vertex="1" parent="1">
          <mxGeometry x="234.5" y="-550" width="359" height="359" as="geometry" />
        </mxCell>
        <mxCell id="IWvoaicDPqGYQ-sWeMdb-2" value="Komputer" style="shape=umlActor;verticalLabelPosition=bottom;verticalAlign=top;html=1;outlineConnect=0;" vertex="1" parent="1">
          <mxGeometry x="90" y="-440" width="70" height="130" as="geometry" />
        </mxCell>
        <mxCell id="IWvoaicDPqGYQ-sWeMdb-5" value="Pemain" style="shape=umlActor;verticalLabelPosition=bottom;verticalAlign=top;html=1;outlineConnect=0;" vertex="1" parent="1">
          <mxGeometry x="660" y="-440" width="70" height="130" as="geometry" />
        </mxCell>
        <mxCell id="IWvoaicDPqGYQ-sWeMdb-6" value="" style="ellipse;whiteSpace=wrap;html=1;fillColor=#FFFFFF;" vertex="1" parent="1">
          <mxGeometry x="354" y="-500" width="156" height="70" as="geometry" />
        </mxCell>
        <mxCell id="IWvoaicDPqGYQ-sWeMdb-7" value="" style="ellipse;whiteSpace=wrap;html=1;" vertex="1" parent="1">
          <mxGeometry x="354" y="-405" width="156" height="75" as="geometry" />
        </mxCell>
        <mxCell id="IWvoaicDPqGYQ-sWeMdb-8" value="" style="ellipse;whiteSpace=wrap;html=1;" vertex="1" parent="1">
          <mxGeometry x="354" y="-310" width="156" height="80" as="geometry" />
        </mxCell>
        <mxCell id="IWvoaicDPqGYQ-sWeMdb-9" value="" style="endArrow=none;html=1;rounded=0;entryX=0;entryY=0.3333333333333333;entryDx=0;entryDy=0;entryPerimeter=0;" edge="1" parent="1" source="IWvoaicDPqGYQ-sWeMdb-8" target="IWvoaicDPqGYQ-sWeMdb-5">
          <mxGeometry width="50" height="50" relative="1" as="geometry">
            <mxPoint x="400" y="-250" as="sourcePoint" />
            <mxPoint x="450" y="-300" as="targetPoint" />
            <Array as="points">
              <mxPoint x="560" y="-310" />
            </Array>
          </mxGeometry>
        </mxCell>
        <mxCell id="IWvoaicDPqGYQ-sWeMdb-10" value="" style="endArrow=none;html=1;rounded=0;exitX=1;exitY=0.3333333333333333;exitDx=0;exitDy=0;exitPerimeter=0;" edge="1" parent="1" source="IWvoaicDPqGYQ-sWeMdb-2" target="IWvoaicDPqGYQ-sWeMdb-6">
          <mxGeometry width="50" height="50" relative="1" as="geometry">
            <mxPoint x="160" y="-385" as="sourcePoint" />
            <mxPoint x="334" y="-500" as="targetPoint" />
            <Array as="points">
              <mxPoint x="290" y="-465" />
            </Array>
          </mxGeometry>
        </mxCell>
        <mxCell id="IWvoaicDPqGYQ-sWeMdb-12" value="" style="endArrow=none;html=1;rounded=0;exitX=1;exitY=0.3333333333333333;exitDx=0;exitDy=0;exitPerimeter=0;" edge="1" parent="1" source="IWvoaicDPqGYQ-sWeMdb-2">
          <mxGeometry width="50" height="50" relative="1" as="geometry">
            <mxPoint x="304" y="-310" as="sourcePoint" />
            <mxPoint x="354" y="-359.24107142857133" as="targetPoint" />
            <Array as="points">
              <mxPoint x="300" y="-350" />
            </Array>
          </mxGeometry>
        </mxCell>
        <mxCell id="IWvoaicDPqGYQ-sWeMdb-14" value="Menebak Angka" style="text;html=1;strokeColor=none;fillColor=none;align=center;verticalAlign=middle;whiteSpace=wrap;rounded=0;" vertex="1" parent="1">
          <mxGeometry x="402" y="-285" width="60" height="30" as="geometry" />
        </mxCell>
        <mxCell id="IWvoaicDPqGYQ-sWeMdb-17" value="Cek Angka" style="text;html=1;strokeColor=none;fillColor=none;align=center;verticalAlign=middle;whiteSpace=wrap;rounded=0;" vertex="1" parent="1">
          <mxGeometry x="402" y="-382.5" width="60" height="30" as="geometry" />
        </mxCell>
        <mxCell id="IWvoaicDPqGYQ-sWeMdb-18" value="Random Angka" style="text;html=1;strokeColor=none;fillColor=none;align=center;verticalAlign=middle;whiteSpace=wrap;rounded=0;fontSize=12;" vertex="1" parent="1">
          <mxGeometry x="402" y="-480" width="60" height="30" as="geometry" />
        </mxCell>
        <mxCell id="IWvoaicDPqGYQ-sWeMdb-20" value="Game Tebak Angka" style="text;html=1;strokeColor=none;fillColor=none;align=center;verticalAlign=middle;whiteSpace=wrap;rounded=0;fontSize=18;" vertex="1" parent="1">
          <mxGeometry x="300" y="-540" width="220" height="30" as="geometry" />
        </mxCell>
      </root>
    </mxGraphModel>
  </diagram>
</mxfile>
